<?xml version="1.0" encoding="utf-8"?><!-- Uploaded to: SVG Repo, www.svgrepo.com, Generator: SVG Repo Mixer Tools -->
<svg fill="#000000" width="800px" height="800px" viewBox="0 0 24 24" id="hospital-2" data-name="Line Color" xmlns="http://www.w3.org/2000/svg" class="icon line-color"><path id="secondary" d="M15,11V7m2,2H13m0,12h4V15H13Z" style="fill: none; stroke: rgb(44, 169, 188); stroke-linecap: round; stroke-linejoin: round; stroke-width: 2;"></path><path id="primary" d="M9,21H21V4a1,1,0,0,0-1-1H10A1,1,0,0,0,9,4Zm0,0H21V4a1,1,0,0,0-1-1H10A1,1,0,0,0,9,4ZM9,6H4A1,1,0,0,0,3,7V20a1,1,0,0,0,1,1H9ZM3,21H9V6H4A1,1,0,0,0,3,7Z" style="fill: none; stroke: rgb(0, 0, 0); stroke-linecap: round; stroke-linejoin: round; stroke-width: 2;"></path></svg>